<svg width="24" height="20" viewBox="0 0 24 20" fill="none" xmlns="http://www.w3.org/2000/svg">
<path d="M23.5468 0.266482C23.1374 -0.0417345 22.4944 -0.0858346 21.8295 0.151143H21.8285C21.1292 0.400236 2.03537 7.67143 1.25808 7.9685C1.11671 8.01211 -0.118008 8.42113 0.00917513 9.33221C0.122712 10.1536 1.11507 10.4938 1.23625 10.5331L6.0905 12.0087C6.41255 12.9605 7.59977 16.4721 7.86233 17.2223C8.02608 17.6899 8.293 18.3044 8.7608 18.4309C9.17128 18.5714 9.57957 18.443 9.84376 18.2589L12.8116 15.8149L17.6025 19.1321L17.7166 19.1927C18.0419 19.3206 18.3536 19.3846 18.6511 19.3846C18.8809 19.3846 19.1014 19.3463 19.3121 19.2698C20.0299 19.0081 20.317 18.4008 20.347 18.332L23.9256 1.81774C24.144 0.935738 23.8405 0.486982 23.5468 0.266482ZM10.3716 12.599L8.73405 16.4759L7.0965 11.6298L19.6511 3.39129L10.3716 12.599Z" fill="#0D0D15"/>
</svg>
